<?xml version="1.0" encoding="UTF-8"?>
<svg xmlns="http://www.w3.org/2000/svg" xmlns:xlink="http://www.w3.org/1999/xlink" width="48pt" height="48pt" viewBox="0 0 48 48" version="1.1">
<g id="surface6301848">
<path style=" stroke:none;fill-rule:nonzero;fill:rgb(35.686275%,80.784314%,73.72549%);fill-opacity:1;" d="M 35.042969 19.011719 C 34.980469 18.933594 34.945312 18.828125 34.945312 18.730469 C 33.976562 17.015625 33.914062 14.925781 32.945312 13.210938 C 30.207031 14.746094 28.335938 17.484375 26.554688 19.976562 C 25.476562 21.480469 24.511719 23.023438 23.625 24.644531 C 22.734375 26.269531 21.867188 27.917969 20.871094 29.484375 C 20.726562 29.710938 20.351562 29.8125 20.195312 29.53125 C 19.722656 28.660156 19.191406 27.8125 18.578125 27.023438 C 18.054688 26.347656 17.457031 25.746094 16.917969 25.082031 C 16.085938 24.050781 15.191406 22.820312 14.039062 22.101562 C 13.617188 23.480469 13.125 24.847656 12.910156 26.277344 C 14.523438 27.320312 15.757812 28.828125 16.945312 30.320312 C 18.335938 32.066406 19.773438 33.730469 21.335938 35.328125 C 22.347656 34.007812 23.042969 32.472656 23.882812 31.042969 C 24.871094 29.355469 26.027344 27.800781 27.253906 26.277344 C 28.480469 24.753906 29.898438 23.410156 31.324219 22.082031 C 31.992188 21.460938 32.78125 20.949219 33.496094 20.378906 C 34.035156 19.945312 34.558594 19.5 35.050781 19.019531 C 35.050781 19.027344 35.050781 19.019531 35.042969 19.011719 Z M 35.042969 19.011719 "/>
<path style=" stroke:none;fill-rule:nonzero;fill:rgb(0%,0%,0%);fill-opacity:1;" d="M 35.824219 18.375 L 35.640625 18.375 C 34.570312 16.558594 34.578125 14.269531 33.410156 12.476562 C 33.285156 12.28125 33.054688 12.273438 32.867188 12.371094 C 29.875 13.886719 27.867188 16.8125 25.960938 19.464844 C 24.871094 20.988281 23.886719 22.550781 22.984375 24.191406 C 22.175781 25.652344 21.402344 27.128906 20.527344 28.5625 C 20.132812 27.878906 19.703125 27.222656 19.222656 26.597656 C 18.683594 25.890625 18.054688 25.265625 17.496094 24.578125 C 16.5 23.351562 15.4375 21.894531 13.972656 21.199219 C 13.730469 21.078125 13.488281 21.230469 13.414062 21.472656 C 12.96875 23.027344 12.378906 24.558594 12.136719 26.160156 C 12.136719 26.164062 12.136719 26.171875 12.136719 26.183594 C 12.003906 26.363281 11.992188 26.652344 12.238281 26.800781 C 13.980469 27.824219 15.257812 29.480469 16.5 31.042969 C 17.941406 32.859375 19.464844 34.59375 21.105469 36.234375 C 21.257812 36.382812 21.527344 36.351562 21.65625 36.199219 C 22.785156 34.847656 23.539062 33.246094 24.398438 31.722656 C 25.363281 30.023438 26.5 28.421875 27.753906 26.921875 C 29.015625 25.417969 30.378906 24.050781 31.816406 22.71875 C 32.5 22.082031 33.300781 21.558594 34.035156 20.976562 C 34.625 20.503906 35.195312 20.011719 35.734375 19.476562 C 35.882812 19.445312 36.007812 19.339844 36.035156 19.171875 C 36.074219 19.128906 36.113281 19.085938 36.152344 19.046875 C 36.402344 18.757812 36.152344 18.375 35.824219 18.375 Z M 33.496094 20.390625 C 32.78125 20.960938 32 21.472656 31.324219 22.097656 C 29.894531 23.421875 28.476562 24.769531 27.253906 26.289062 C 26.027344 27.8125 24.871094 29.363281 23.882812 31.054688 C 23.042969 32.484375 22.347656 34.019531 21.335938 35.339844 C 19.773438 33.75 18.328125 32.078125 16.945312 30.332031 C 15.757812 28.84375 14.515625 27.328125 12.910156 26.289062 C 13.125 24.859375 13.617188 23.496094 14.039062 22.117188 C 15.199219 22.832031 16.085938 24.066406 16.917969 25.097656 C 17.457031 25.757812 18.054688 26.363281 18.578125 27.039062 C 19.191406 27.824219 19.722656 28.671875 20.195312 29.546875 C 20.351562 29.835938 20.726562 29.722656 20.871094 29.5 C 21.875 27.929688 22.734375 26.285156 23.625 24.65625 C 24.511719 23.035156 25.476562 21.492188 26.554688 19.992188 C 28.335938 17.496094 30.214844 14.753906 32.945312 13.222656 C 33.914062 14.9375 33.976562 17.03125 34.945312 18.742188 C 34.945312 18.84375 34.980469 18.945312 35.042969 19.027344 C 35.042969 19.03125 35.050781 19.039062 35.050781 19.039062 C 34.558594 19.511719 34.035156 19.957031 33.496094 20.390625 Z M 33.496094 20.390625 "/>
</g>
</svg>
