<?xml version="1.0" encoding="UTF-8" standalone="no"?>
<!DOCTYPE svg PUBLIC "-//W3C//DTD SVG 1.1//EN" "http://www.w3.org/Graphics/SVG/1.1/DTD/svg11.dtd">
<svg width="100%" height="100%" viewBox="0 0 419 67" version="1.1" xmlns="http://www.w3.org/2000/svg" xmlns:xlink="http://www.w3.org/1999/xlink" xml:space="preserve" xmlns:serif="http://www.serif.com/" style="fill-rule:evenodd;clip-rule:evenodd;stroke-linejoin:round;stroke-miterlimit:2;">
    <g transform="matrix(1,0,0,1,-240.909,-467)">
        <g transform="matrix(1.77273,0,0,1.7619,-184.682,-368.143)">
            <path d="M261,474L265.939,488.511L281.923,488.511L268.992,497.479L273.931,511.989L261,503.021L248.069,511.989L253.008,497.479L240.077,488.511L256.061,488.511L261,474Z" style="fill:rgb(0,204,188);"/>
        </g>
        <g transform="matrix(1.77273,0,0,1.7619,-103.682,-368.143)">
            <path d="M261,474L265.939,488.511L281.923,488.511L268.992,497.479L273.931,511.989L261,503.021L248.069,511.989L253.008,497.479L240.077,488.511L256.061,488.511L261,474Z" style="fill:rgb(0,204,188);"/>
        </g>
        <g transform="matrix(1.77273,0,0,1.7619,-15.6818,-368.143)">
            <path d="M261,474L265.939,488.511L281.923,488.511L268.992,497.479L273.931,511.989L261,503.021L248.069,511.989L253.008,497.479L240.077,488.511L256.061,488.511L261,474Z" style="fill:rgb(0,204,188);"/>
        </g>
        <g transform="matrix(1.77273,0,0,1.7619,74.3182,-368.143)">
            <path d="M261,474L265.939,488.511L281.923,488.511L268.992,497.479L273.931,511.989L261,503.021L248.069,511.989L253.008,497.479L240.077,488.511L256.061,488.511L261,474Z" style="fill:rgb(0,204,188);"/>
        </g>
        <g transform="matrix(1.77273,0,0,1.7619,159.318,-368.143)">
            <path d="M261,474L265.939,488.511L281.923,488.511L268.992,497.479L273.931,511.989L261,503.021L248.069,511.989L253.008,497.479L240.077,488.511L256.061,488.511L261,474Z" style="fill:rgb(0,204,188);"/>
        </g>
    </g>
</svg>
